<svg width="172" height="52" viewBox="0 0 172 52" fill="none" xmlns="http://www.w3.org/2000/svg">
<path d="M34.2137 0.658417C33.2861 0.766888 32.5406 0.932442 31.8236 1.18934C31.3171 1.37202 30.5204 1.71455 30.2416 1.8744C30.1391 1.93149 29.5643 2.2569 28.9554 2.59372C28.3465 2.93054 27.4986 3.4215 27.0661 3.68411C25.1767 4.82588 24.3402 5.17982 23.1167 5.36251C22.5988 5.44243 22.0753 5.40818 21.4094 5.24833C20.7721 5.0999 20.3566 4.94576 18.2226 4.04947C16.1739 3.18744 15.5195 2.94767 14.5975 2.68506C12.6171 2.1313 10.6026 2.10847 8.78155 2.62226C8.02467 2.8392 7.5125 3.05043 6.77839 3.45575C3.53463 5.26546 1.29246 8.99905 0.717686 13.5547C0.626633 14.3026 0.620942 16.432 0.711995 17.1227C0.905482 18.5671 1.1445 19.5205 1.92414 21.9467C2.90295 24.9895 3.3696 26.765 3.79072 29.0828C4.08095 30.6698 4.21184 32.1713 4.36549 35.6194C4.52483 39.2274 4.82644 41.3397 5.51503 43.7545C6.15809 46.0209 7.3304 48.4129 8.45148 49.7602C9.02625 50.451 9.91971 51.0561 10.6254 51.2388C11.1546 51.3758 12.0594 51.3244 12.5716 51.1361C13.2318 50.8906 13.7439 50.5423 14.3528 49.9258C15.6731 48.5956 16.1284 47.4938 17.5681 42.1275C18.325 39.313 18.9681 37.2864 19.6168 35.705C20.0209 34.7174 20.7038 33.3701 21.1249 32.7364C21.4891 32.1827 22.2801 31.3435 22.6899 31.0752C22.9232 30.9267 22.9915 30.9096 23.4297 30.9096C24.0898 30.9096 24.4312 31.0752 25.0515 31.7031C25.6491 32.3083 26.0987 32.9762 26.7246 34.1979C27.8457 36.3901 28.9042 39.4386 30.2017 44.2398C31.2033 47.9619 31.8008 49.195 33.178 50.3882C33.9121 51.0276 34.6121 51.3187 35.4259 51.3187C36.4844 51.3187 37.3095 50.9134 38.3168 49.9029C39.4265 48.7954 40.2574 47.3625 40.9459 45.3815C42.0955 42.0818 42.4882 39.7869 42.8068 34.5918C43.1597 28.7574 43.7913 25.6004 45.436 21.3758C46.5286 18.5899 46.7278 17.6765 46.7278 15.6384C46.7221 13.686 46.3807 11.8363 45.6465 9.84396C45.3677 9.07897 44.5994 7.47478 44.2068 6.81827C42.0272 3.21598 39.0225 1.0352 35.7673 0.681255C35.2438 0.629875 34.5893 0.618458 34.2137 0.658417ZM36.547 2.70219C37.5485 2.96479 38.6981 3.59848 39.5915 4.3863C41.2191 5.82493 42.7556 7.93149 43.6434 9.94101C44.3604 11.5794 44.6848 12.744 44.9124 14.5024C44.9807 15.0276 44.9466 16.5804 44.8555 17.1798C44.7531 17.8763 44.4173 18.921 43.7515 20.6166C42.2207 24.5385 41.5606 27.49 41.185 32.0514C41.1224 32.8335 40.9801 34.6603 40.872 36.1104C40.5931 39.7869 40.5078 40.3863 40.0411 42.099C39.1533 45.3416 38.2257 47.3168 37.0022 48.5442C36.4104 49.1437 36.0576 49.3378 35.5568 49.3378C35.0958 49.3435 34.8454 49.2236 34.356 48.7669C33.2463 47.7336 32.4041 45.6784 31.4537 41.6651C31.0496 39.9696 30.8106 39.1018 30.3781 37.7888C29.0806 33.8554 27.5441 31.1494 25.8312 29.7907C23.9305 28.2664 21.7623 28.8202 19.8502 31.3092C19.1957 32.1656 18.2681 33.9467 17.6023 35.6308C16.8511 37.5376 16.4812 38.7421 15.3487 42.9496C14.9674 44.3597 14.5577 45.7754 14.4382 46.1009C13.9772 47.334 13.3 48.4186 12.7196 48.8525C12.2131 49.2293 12.0651 49.2921 11.5928 49.2921C11.2343 49.2921 11.1091 49.2636 10.8302 49.1265C10.4433 48.9382 9.81727 48.3673 9.42461 47.8421C8.6905 46.8773 7.66046 44.3882 7.13691 42.3273C6.49954 39.8268 6.23776 37.5547 6.10118 33.3073C6.06135 32.0343 5.94753 30.8639 5.72559 29.3111C5.36707 26.7935 4.88904 24.8183 3.93868 21.9125C3.26716 19.863 2.84035 18.3159 2.61841 17.1227C2.47614 16.3578 2.47614 14.1541 2.61841 13.2978C3.1818 9.91817 4.45654 7.53758 6.5849 5.89343C8.2523 4.60894 10.4546 4.02664 12.6456 4.30066C14.8992 4.5804 16.6975 5.2883 20.8973 7.56042C25.1767 9.87821 26.0987 10.2036 28.8075 10.392C30.27 10.4891 32.6089 10.3692 32.9276 10.1808C33.4056 9.89534 33.5593 9.24453 33.2577 8.79924C32.9959 8.42245 32.8024 8.36536 32.0569 8.42245C31.7098 8.451 30.7708 8.46812 29.9741 8.46812C28.7904 8.46241 28.392 8.43958 27.8059 8.33682C26.9124 8.18839 25.8483 7.93149 25.1085 7.69172C24.2207 7.40057 24.1979 7.43482 26.1442 6.37297C27.0433 5.88772 28.6311 5.01427 29.6725 4.43197C32.5748 2.81065 33.5251 2.48525 35.2096 2.53663C35.7958 2.55376 36.1145 2.59372 36.547 2.70219Z" fill="black"/>
<path d="M8.62224 7.17793C8.07592 7.42912 7.02312 8.59372 6.43697 9.59277C5.23052 11.6365 4.91183 14.0114 5.45246 16.9515C5.73131 18.4929 6.46542 20.4453 7.34181 22.0152C7.78569 22.803 8.01332 22.9686 8.44013 22.8316C8.67914 22.7517 9.06043 22.4263 9.17993 22.1979C9.3279 21.9068 9.27668 21.6442 8.94092 20.9191C7.75154 18.3673 7.26213 16.7117 7.12556 14.7536C7.05157 13.7774 7.2849 12.4301 7.68325 11.4938C8.07592 10.5747 8.58809 9.84967 9.44171 9.01047C10.1246 8.33683 10.1303 8.30828 9.7604 7.68602C9.57829 7.37203 9.48155 7.26927 9.29375 7.18364C9.00352 7.05233 8.8897 7.05233 8.62224 7.17793Z" fill="black"/>
<path d="M40.6443 10.038C40.3882 10.1922 40.1719 10.4776 40.1264 10.7117C40.0923 10.883 40.1435 11.0885 40.354 11.7279C40.6955 12.7726 40.7865 13.2293 40.8264 14.1256C40.8491 14.6679 40.8321 15.0447 40.7638 15.5128C40.5874 16.7003 40.4792 17.0314 39.0907 20.6622C38.5956 21.941 38.5728 22.2036 38.9313 22.4948C39.1248 22.6546 39.6256 22.7916 39.8589 22.7459C40.1492 22.6946 40.3484 22.4548 40.7126 21.7184C42.7499 17.6479 43.2165 14.2341 42.1694 11.0714C41.9304 10.3463 41.8109 10.1408 41.5605 10.0209C41.2987 9.89533 40.8605 9.90104 40.6443 10.038Z" fill="black"/>
<path d="M19.6395 21.4843C19.5257 21.5357 19.281 21.7983 18.9794 22.1865C16.2421 25.7146 13.7723 31.4976 12.4293 37.5319C12.0594 39.1931 11.826 41.0999 11.7805 42.8696C11.7521 44.04 11.7578 44.2341 11.8374 44.3939C12.0821 44.8677 12.8162 44.9876 13.2658 44.6337C13.5333 44.4225 13.5731 44.2626 13.6357 43.1836C13.8349 39.9239 14.3869 36.9439 15.36 33.8782C16.5892 30.0019 18.0518 26.9477 20.2427 23.6594C20.8516 22.746 20.9256 22.6032 20.9256 22.3463C20.9256 21.8611 20.4305 21.3987 19.9297 21.4044C19.8671 21.4101 19.7363 21.4443 19.6395 21.4843Z" fill="black"/>
<path d="M26.6164 21.5528C26.0815 21.8554 25.9563 22.118 26.127 22.569C26.1782 22.7003 26.6164 23.3853 27.1001 24.0932C28.7391 26.4852 29.5073 27.9182 30.5431 30.51C31.795 33.6556 33.2917 39.45 33.8153 43.1551C34.0201 44.628 34.0372 44.6679 34.3957 44.8392C34.76 45.0162 35.4087 44.8392 35.6079 44.5138C35.7615 44.2569 35.7558 43.8173 35.5794 42.4871C34.447 34.0894 31.9146 27.1874 28.0846 22.0609C27.6009 21.4215 27.1343 21.2559 26.6164 21.5528Z" fill="black"/>
<path d="M132.733 8.5823C132.608 8.62797 132.448 8.71932 132.374 8.79353C132.113 9.03901 132.095 9.19886 132.095 11.2712V13.2122L132.238 13.4976C132.334 13.6974 132.448 13.823 132.608 13.9087C132.83 14.0343 132.869 14.04 134.986 14.04C136.99 14.04 137.149 14.0343 137.348 13.9315C137.61 13.8002 137.763 13.6289 137.934 13.2978C138.071 13.0409 138.071 13.0295 138.071 11.157C138.071 8.98763 138.065 8.9648 137.593 8.68506L137.331 8.53092L135.14 8.51951C133.382 8.50809 132.904 8.51951 132.733 8.5823Z" fill="black"/>
<path d="M142.578 10.5519C142.316 10.6089 142.049 10.8716 141.946 11.1627C141.867 11.4082 141.855 12.5557 141.855 23.4139C141.855 31.8858 141.872 35.471 141.918 35.6423C141.958 35.7964 142.054 35.9677 142.174 36.0818L142.373 36.2759L144.632 36.2931C146.596 36.3045 146.92 36.2988 147.131 36.2188C147.415 36.1104 147.631 35.8706 147.717 35.5737C147.757 35.431 147.774 31.452 147.774 23.3968V11.4367L147.626 11.1342C147.529 10.9401 147.392 10.7802 147.244 10.6832L147.011 10.529L144.877 10.5233C143.699 10.5176 142.669 10.529 142.578 10.5519Z" fill="black"/>
<path d="M62.7247 16.0723C61.5865 16.2322 60.6248 16.5062 59.885 16.8773C58.3883 17.6251 57.3526 18.8183 56.9428 20.2512C56.5388 21.6727 56.7493 23.6765 57.4379 24.9382C58.2574 26.4282 59.902 27.5985 62.184 28.3121C62.6052 28.4434 63.3507 28.6774 63.8344 28.8316C65.0807 29.2198 65.4278 29.471 65.5416 30.0761C65.6384 30.607 65.5018 30.9724 65.0977 31.2293C64.7165 31.4748 64.3522 31.5661 63.5897 31.6289C62.9921 31.6746 62.8556 31.6689 62.4344 31.5661C61.4841 31.3435 60.6589 30.9039 59.8622 30.2131C59.2988 29.7222 58.9687 29.5452 58.7297 29.6023C58.6273 29.6308 58.1436 30.0647 57.3639 30.8411C56.0323 32.1598 55.9355 32.3083 56.0038 32.7992C56.0551 33.1817 56.2713 33.5414 56.7835 34.0951C57.5233 34.9001 58.6045 35.6194 59.737 36.0647C61.6776 36.8354 64.1815 36.9439 66.4578 36.3616C69.1553 35.6708 71.056 33.7697 71.4544 31.3663C71.6023 30.4472 71.5682 29.2597 71.369 28.4548C70.9422 26.7536 69.8325 25.4634 68.0171 24.5557C66.9643 24.0362 65.2855 23.431 64.1189 23.157C63.1344 22.9286 62.6564 22.6261 62.5312 22.1694C62.3548 21.5014 62.884 21.0048 63.8799 20.9134C64.3238 20.8735 65.1546 20.999 65.6099 21.1817C65.957 21.3187 66.5034 21.7012 66.7936 22.0038C67.0497 22.2721 67.2489 22.3749 67.5163 22.3749C67.7781 22.3749 67.8919 22.3064 68.4439 21.7812C68.6772 21.5585 69.2179 21.0733 69.6447 20.7079C70.7316 19.7774 70.7942 19.6803 70.6349 19.2578C70.5723 19.0866 70.4016 18.8754 70.0772 18.5728C68.6488 17.2255 67.522 16.5861 65.8888 16.1979C65.4961 16.1066 65.1546 16.0837 64.1474 16.0666C63.4588 16.0552 62.8214 16.0609 62.7247 16.0723Z" fill="black"/>
<path d="M84.4919 16.1522C83.3083 16.2607 82.2953 16.7345 81.5669 17.5224C81.1571 17.9677 80.9921 18.2131 80.5824 18.9952L80.2352 19.6461L79.9734 18.5385C79.6832 17.3225 79.5068 16.9115 79.1824 16.6432L78.9605 16.4662L77.5036 16.4491C76.6955 16.4377 75.933 16.4491 75.7964 16.4662C75.5062 16.5062 75.2046 16.7517 75.0395 17.0714C74.9314 17.2826 74.9314 17.4938 74.9314 26.3597C74.9314 32.9933 74.9485 35.4824 74.994 35.6251C75.085 35.8877 75.2558 36.0704 75.5289 36.196C75.7395 36.2931 75.9387 36.3045 77.9361 36.3045C79.9621 36.3045 80.1271 36.2988 80.3263 36.196C80.4401 36.1389 80.5824 36.0362 80.6393 35.9734C80.901 35.6822 80.901 35.7336 80.9067 30.0647C80.9067 24.0533 80.8954 24.2702 81.3222 23.431C81.8742 22.3578 82.927 21.6898 84.0651 21.6898C85.3626 21.6898 86.3471 22.4834 86.7512 23.8421C86.8422 24.1446 86.8536 24.7212 86.8821 29.9677C86.9162 36.5043 86.8764 36.0362 87.3487 36.2131C87.565 36.2988 87.878 36.3045 89.8811 36.2931C92.0835 36.2759 92.1745 36.2702 92.3225 36.156C92.4078 36.0932 92.533 35.9391 92.5956 35.8135C92.7151 35.5966 92.7151 35.5167 92.7436 29.8535C92.7777 23.5852 92.755 23.9905 93.1306 23.2598C93.6427 22.2778 94.6045 21.6898 95.7028 21.6898C97.0174 21.6898 97.9962 22.432 98.4401 23.7736L98.5767 24.1732L98.6051 29.9677C98.6336 35.6023 98.6393 35.7678 98.7474 35.9448C98.958 36.2988 99.049 36.3102 101.604 36.2931C103.807 36.2759 103.898 36.2702 104.046 36.156C104.131 36.0932 104.256 35.9391 104.319 35.8135C104.438 35.5966 104.438 35.5224 104.455 30.196C104.472 24.4415 104.45 23.6365 104.216 22.5176C103.488 19.0752 101.297 16.7688 98.2409 16.2265C97.5182 16.1009 96.1581 16.1066 95.5605 16.2322C94.1435 16.5404 92.8859 17.2426 91.964 18.2303C91.7477 18.4586 91.4859 18.784 91.3778 18.9439C91.2697 19.1037 91.1672 19.235 91.1502 19.235C91.1331 19.235 91.0193 19.0866 90.8941 18.9153C90.5868 18.4814 89.7389 17.6765 89.1982 17.3054C88.2649 16.6603 87.2065 16.2778 86.0057 16.1579C85.3285 16.0894 85.2147 16.0894 84.4919 16.1522Z" fill="black"/>
<path d="M116.554 16.158C114.209 16.3692 111.978 17.4082 110.328 19.0638C107.574 21.8325 106.618 25.9372 107.858 29.7108C108.979 33.1418 111.916 35.7621 115.421 36.47C117.447 36.8754 118.677 36.7326 120.031 35.9163C120.56 35.6023 120.97 35.2655 121.681 34.5804C122.045 34.2322 122.347 33.9581 122.353 33.9696C122.364 33.981 122.518 34.392 122.7 34.8773C122.882 35.3625 123.098 35.8478 123.178 35.9562C123.428 36.2931 123.497 36.3045 125.608 36.3045C127.395 36.3045 127.531 36.2988 127.736 36.1903C128.044 36.0362 128.237 35.785 128.305 35.4367C128.351 35.2255 128.368 32.4738 128.357 26.1427C128.339 17.8078 128.334 17.1399 128.243 16.9743C128.118 16.746 127.782 16.4491 127.583 16.3977C127.497 16.3692 126.723 16.3521 125.864 16.3521C124.436 16.3521 124.282 16.3635 124.134 16.4548C123.918 16.5975 123.667 17.157 123.275 18.3901C123.098 18.9496 122.945 19.4063 122.933 19.4063C122.928 19.4063 122.78 19.2179 122.609 18.9895C121.391 17.3739 119.946 16.4206 118.358 16.1808C117.766 16.0894 117.362 16.0837 116.554 16.158ZM118.796 21.5699C119.712 21.8383 120.68 22.4776 121.232 23.1798C121.641 23.6993 121.801 23.9677 122.028 24.5271C122.609 25.9829 122.484 27.6042 121.676 28.9972C121.38 29.5167 120.543 30.333 119.985 30.647C118.238 31.6346 116.15 31.5205 114.704 30.3673C114.181 29.9505 113.834 29.5052 113.515 28.8544C113.105 28.0152 112.98 27.4558 112.98 26.3996C112.98 25.686 113.003 25.4577 113.111 25.0295C113.595 23.1285 114.938 21.7755 116.645 21.4558C117.106 21.3701 118.335 21.4386 118.796 21.5699Z" fill="black"/>
<path d="M132.784 16.4948C132.574 16.5633 132.369 16.7517 132.221 17.0371L132.096 17.2655L132.078 26.1427C132.067 31.8344 132.084 35.1513 132.118 35.3911C132.181 35.7735 132.283 35.9619 132.545 36.156C132.693 36.2702 132.778 36.2759 134.981 36.2931C137.206 36.3102 137.263 36.3045 137.507 36.1846C137.684 36.0989 137.803 35.9848 137.917 35.8021L138.071 35.5338L138.088 26.628C138.099 20.3768 138.088 17.6365 138.042 17.431C137.963 17.0656 137.729 16.7745 137.348 16.5861L137.052 16.4377L135.004 16.4434C133.871 16.4434 132.875 16.4719 132.784 16.4948Z" fill="black"/>
<path d="M150.676 16.5633C150.511 16.6489 150.38 16.7688 150.317 16.8944C150.078 17.3511 149.959 17.02 154.028 27.0219L157.789 36.2588L156.56 39.4672C155.883 41.2255 155.297 42.7612 155.257 42.8697C155.172 43.1037 155.229 43.6061 155.371 43.8173C155.416 43.8915 155.542 44 155.644 44.0514C155.809 44.1427 156.048 44.1541 158.063 44.1713C160.242 44.1884 160.305 44.1827 160.51 44.0685C160.766 43.9258 160.959 43.6575 161.09 43.2521C161.466 42.1446 165.899 30.9267 169.655 21.6042C170.577 19.3092 171.299 17.4367 171.316 17.2883C171.362 16.9286 171.225 16.6889 170.907 16.5462C170.668 16.4377 170.525 16.4377 168.152 16.4491C165.728 16.4662 165.648 16.4719 165.495 16.5861C165.409 16.6489 165.29 16.7688 165.227 16.8487C165.142 16.9629 161.875 26.3654 160.925 29.2369C160.823 29.5452 160.72 29.7964 160.703 29.7964C160.68 29.7964 159.719 27.0904 158.563 23.785C155.946 16.3007 156.19 16.9458 155.872 16.666L155.61 16.4377H153.271C150.955 16.4377 150.926 16.4377 150.676 16.5633Z" fill="black"/>
</svg>
