<svg width="180" height="60" viewBox="0 0 180 60" fill="none" xmlns="http://www.w3.org/2000/svg">
<mask id="mask0_66_485" style="mask-type:alpha" maskUnits="userSpaceOnUse" x="0" y="0" width="180" height="60">
<path d="M38.2137 4.65852C37.2861 4.76699 36.5406 4.93255 35.8236 5.18945C35.3171 5.37213 34.5204 5.71466 34.2416 5.87451C34.1391 5.9316 33.5643 6.257 32.9554 6.59383C32.3465 6.93065 31.4986 7.42161 31.0661 7.68422C29.1767 8.82598 28.3402 9.17993 27.1167 9.36262C26.5988 9.44254 26.0753 9.40829 25.4094 9.24844C24.7721 9.10001 24.3566 8.94587 22.2226 8.04958C20.1739 7.18755 19.5195 6.94777 18.5975 6.68517C16.6171 6.13141 14.6026 6.10857 12.7815 6.62237C12.0247 6.83931 11.5125 7.05053 10.7784 7.45586C7.53463 9.26557 5.29246 12.9992 4.71769 17.5548C4.62663 18.3027 4.62094 20.4321 4.712 21.1228C4.90548 22.5672 5.1445 23.5206 5.92414 25.9468C6.90295 28.9896 7.3696 30.7651 7.79072 33.0829C8.08095 34.6699 8.21184 36.1714 8.36549 39.6195C8.52483 43.2275 8.82644 45.3398 9.51503 47.7546C10.1581 50.021 11.3304 52.413 12.4515 53.7603C13.0263 54.4511 13.9197 55.0562 14.6254 55.2389C15.1546 55.3759 16.0594 55.3246 16.5716 55.1362C17.2318 54.8907 17.7439 54.5424 18.3528 53.9259C19.6731 52.5957 20.1284 51.4939 21.5681 46.1276C22.325 43.3131 22.9681 41.2865 23.6168 39.7051C24.0209 38.7175 24.7038 37.3702 25.1249 36.7365C25.4891 36.1828 26.2801 35.3436 26.6899 35.0753C26.9232 34.9268 26.9915 34.9097 27.4297 34.9097C28.0898 34.9097 28.4312 35.0753 29.0515 35.7032C29.6491 36.3084 30.0987 36.9763 30.7246 38.198C31.8457 40.3902 32.9042 43.4387 34.2017 48.2399C35.2033 51.962 35.8008 53.1952 37.178 54.3883C37.9121 55.0277 38.6121 55.3188 39.4259 55.3188C40.4844 55.3188 41.3095 54.9135 42.3168 53.9031C43.4265 52.7955 44.2574 51.3626 44.9459 49.3816C46.0955 46.0819 46.4882 43.787 46.8068 38.5919C47.1597 32.7575 47.7913 29.6005 49.436 25.3759C50.5286 22.59 50.7278 21.6766 50.7278 19.6385C50.7221 17.6861 50.3807 15.8365 49.6465 13.8441C49.3677 13.0791 48.5994 11.4749 48.2068 10.8184C46.0272 7.21609 43.0225 5.03531 39.7673 4.68136C39.2438 4.62998 38.5893 4.61856 38.2137 4.65852ZM40.547 6.70229C41.5485 6.9649 42.6981 7.59858 43.5915 8.3864C45.2191 9.82504 46.7556 11.9316 47.6434 13.9411C48.3604 15.5796 48.6848 16.7442 48.9124 18.5025C48.9807 19.0277 48.9466 20.5805 48.8555 21.1799C48.7531 21.8764 48.4173 22.9211 47.7515 24.6167C46.2207 28.5386 45.5606 31.4901 45.185 36.0515C45.1224 36.8336 44.9801 38.6604 44.872 40.1105C44.5931 43.787 44.5078 44.3864 44.0411 46.0991C43.1533 49.3417 42.2257 51.3169 41.0022 52.5443C40.4104 53.1438 40.0576 53.3379 39.5568 53.3379C39.0958 53.3436 38.8454 53.2237 38.356 52.767C37.2463 51.7337 36.4041 49.6785 35.4537 45.6652C35.0496 43.9697 34.8106 43.1019 34.3781 41.7889C33.0806 37.8555 31.5441 35.1495 29.8312 33.7908C27.9305 32.2665 25.7623 32.8203 23.8502 35.3093C23.1957 36.1657 22.2681 37.9468 21.6023 39.6309C20.8511 41.5377 20.4812 42.7423 19.3487 46.9497C18.9674 48.3598 18.5577 49.7756 18.4382 50.101C17.9772 51.3341 17.3 52.4188 16.7196 52.8526C16.2131 53.2294 16.0651 53.2922 15.5928 53.2922C15.2343 53.2922 15.1091 53.2637 14.8302 53.1266C14.4433 52.9383 13.8173 52.3674 13.4246 51.8422C12.6905 50.8774 11.6605 48.3883 11.1369 46.3274C10.4995 43.8269 10.2378 41.5548 10.1012 37.3074C10.0613 36.0344 9.94753 34.864 9.72559 33.3112C9.36707 30.7936 8.88904 28.8184 7.93868 25.9126C7.26716 23.8631 6.84035 22.316 6.61841 21.1228C6.47614 20.3579 6.47614 18.1542 6.61841 17.2979C7.1818 13.9183 8.45654 11.5377 10.5849 9.89354C12.2523 8.60905 14.4546 8.02674 16.6456 8.30077C18.8992 8.58051 20.6975 9.2884 24.8973 11.5605C29.1767 13.8783 30.0987 14.2037 32.8075 14.3921C34.27 14.4892 36.6089 14.3693 36.9276 14.1809C37.4056 13.8954 37.5593 13.2446 37.2577 12.7993C36.9959 12.4226 36.8024 12.3655 36.0569 12.4226C35.7098 12.4511 34.7708 12.4682 33.9741 12.4682C32.7904 12.4625 32.392 12.4397 31.8059 12.3369C30.9124 12.1885 29.8483 11.9316 29.1085 11.6918C28.2207 11.4007 28.1979 11.4349 30.1442 10.3731C31.0433 9.88783 32.6311 9.01438 33.6725 8.43208C36.5748 6.81076 37.5251 6.48536 39.2096 6.53674C39.7958 6.55386 40.1145 6.59383 40.547 6.70229Z" fill="black"/>
<path d="M12.6222 11.178C12.0759 11.4292 11.0231 12.5938 10.437 13.5928C9.23052 15.6366 8.91183 18.0115 9.45246 20.9515C9.73131 22.4929 10.4654 24.4453 11.3418 26.0153C11.7857 26.8031 12.0133 26.9686 12.4401 26.8316C12.6791 26.7517 13.0604 26.4263 13.1799 26.198C13.3279 25.9068 13.2767 25.6442 12.9409 24.9192C11.7515 22.3673 11.2621 20.7118 11.1256 18.7536C11.0516 17.7774 11.2849 16.4301 11.6833 15.4939C12.0759 14.5747 12.5881 13.8497 13.4417 13.0105C14.1246 12.3369 14.1303 12.3083 13.7604 11.6861C13.5783 11.3721 13.4815 11.2693 13.2938 11.1837C13.0035 11.0524 12.8897 11.0524 12.6222 11.178Z" fill="black"/>
<path d="M44.6443 14.0381C44.3882 14.1922 44.1719 14.4777 44.1264 14.7117C44.0923 14.883 44.1435 15.0885 44.354 15.7279C44.6955 16.7726 44.7865 17.2293 44.8264 18.1256C44.8491 18.668 44.8321 19.0447 44.7638 19.5129C44.5874 20.7003 44.4792 21.0314 43.0907 24.6622C42.5956 25.941 42.5728 26.2036 42.9313 26.4948C43.1248 26.6546 43.6256 26.7916 43.8589 26.746C44.1492 26.6946 44.3484 26.4548 44.7126 25.7184C46.7499 21.648 47.2165 18.2341 46.1694 15.0714C45.9304 14.3464 45.8109 14.1408 45.5605 14.021C45.2987 13.8954 44.8605 13.9011 44.6443 14.0381Z" fill="black"/>
<path d="M23.6395 25.4845C23.5257 25.5358 23.281 25.7984 22.9794 26.1866C20.2421 29.7147 17.7723 35.4978 16.4293 41.532C16.0594 43.1933 15.826 45.1001 15.7805 46.8698C15.7521 48.0401 15.7578 48.2342 15.8374 48.3941C16.0821 48.8679 16.8162 48.9878 17.2658 48.6338C17.5333 48.4226 17.5731 48.2628 17.6357 47.1838C17.8349 43.924 18.3869 40.944 19.36 37.8784C20.5892 34.0021 22.0518 30.9478 24.2427 27.6595C24.8516 26.7461 24.9256 26.6034 24.9256 26.3465C24.9256 25.8612 24.4305 25.3988 23.9297 25.4045C23.8671 25.4102 23.7363 25.4445 23.6395 25.4845Z" fill="black"/>
<path d="M30.6164 25.5528C30.0815 25.8554 29.9563 26.118 30.127 26.569C30.1782 26.7003 30.6164 27.3853 31.1001 28.0932C32.7391 30.4852 33.5073 31.9182 34.5431 34.51C35.795 37.6556 37.2917 43.45 37.8153 47.1551C38.0201 48.628 38.0372 48.6679 38.3957 48.8392C38.76 49.0162 39.4087 48.8392 39.6079 48.5138C39.7615 48.2569 39.7558 47.8173 39.5794 46.4871C38.447 38.0894 35.9146 31.1874 32.0846 26.0609C31.6009 25.4215 31.1343 25.2559 30.6164 25.5528Z" fill="black"/>
<path d="M136.733 12.5824C136.608 12.6281 136.448 12.7194 136.374 12.7936C136.113 13.0391 136.095 13.1989 136.095 15.2712V17.2123L136.238 17.4977C136.334 17.6975 136.448 17.8231 136.608 17.9087C136.83 18.0343 136.869 18.04 138.986 18.04C140.99 18.04 141.149 18.0343 141.348 17.9316C141.61 17.8003 141.763 17.629 141.934 17.2979C142.071 17.041 142.071 17.0296 142.071 15.1571C142.071 12.9877 142.065 12.9649 141.593 12.6851L141.331 12.531L139.14 12.5196C137.382 12.5082 136.904 12.5196 136.733 12.5824Z" fill="black"/>
<path d="M146.578 14.5522C146.316 14.6093 146.049 14.8719 145.946 15.163C145.867 15.4085 145.855 16.556 145.855 27.4142C145.855 35.8861 145.872 39.4713 145.918 39.6426C145.958 39.7967 146.054 39.968 146.174 40.0822L146.373 40.2763L148.632 40.2934C150.596 40.3048 150.92 40.2991 151.131 40.2192C151.415 40.1107 151.631 39.8709 151.717 39.5741C151.757 39.4313 151.774 35.4523 151.774 27.3971V15.4371L151.626 15.1345C151.529 14.9404 151.392 14.7805 151.244 14.6835L151.011 14.5293L148.877 14.5236C147.699 14.5179 146.669 14.5293 146.578 14.5522Z" fill="black"/>
<path d="M66.7247 20.0724C65.5865 20.2322 64.6248 20.5062 63.885 20.8773C62.3883 21.6252 61.3526 22.8183 60.9428 24.2512C60.5388 25.6728 60.7493 27.6766 61.4379 28.9382C62.2574 30.4282 63.902 31.5985 66.184 32.3121C66.6052 32.4434 67.3507 32.6775 67.8344 32.8316C69.0807 33.2198 69.4278 33.471 69.5416 34.0762C69.6384 34.6071 69.5018 34.9725 69.0977 35.2294C68.7165 35.4748 68.3522 35.5662 67.5897 35.629C66.9921 35.6747 66.8556 35.6689 66.4344 35.5662C65.4841 35.3435 64.6589 34.904 63.8622 34.2132C63.2988 33.7222 62.9687 33.5453 62.7297 33.6023C62.6273 33.6309 62.1436 34.0648 61.3639 34.8412C60.0323 36.1599 59.9355 36.3083 60.0038 36.7993C60.0551 37.1818 60.2713 37.5414 60.7835 38.0952C61.5233 38.9002 62.6045 39.6195 63.737 40.0648C65.6776 40.8355 68.1815 40.9439 70.4578 40.3616C73.1553 39.6708 75.056 37.7698 75.4544 35.3664C75.6023 34.4473 75.5682 33.2598 75.369 32.4549C74.9422 30.7536 73.8325 29.4634 72.0171 28.5557C70.9643 28.0362 69.2855 27.4311 68.1189 27.1571C67.1344 26.9287 66.6564 26.6261 66.5312 26.1694C66.3548 25.5015 66.884 25.0048 67.8799 24.9135C68.3238 24.8735 69.1546 24.9991 69.6099 25.1818C69.957 25.3188 70.5034 25.7013 70.7936 26.0039C71.0497 26.2722 71.2489 26.3749 71.5163 26.3749C71.7781 26.3749 71.8919 26.3064 72.4439 25.7812C72.6772 25.5586 73.2179 25.0733 73.6447 24.708C74.7316 23.7774 74.7942 23.6804 74.6349 23.2579C74.5723 23.0866 74.4016 22.8754 74.0772 22.5728C72.6488 21.2256 71.522 20.5862 69.8888 20.198C69.4961 20.1066 69.1546 20.0838 68.1474 20.0667C67.4588 20.0552 66.8214 20.061 66.7247 20.0724Z" fill="black"/>
<path d="M88.4919 20.1525C87.3083 20.2609 86.2953 20.7348 85.5669 21.5226C85.1571 21.9679 84.9921 22.2133 84.5824 22.9955L84.2352 23.6463L83.9734 22.5387C83.6832 21.3228 83.5068 20.9117 83.1824 20.6434L82.9605 20.4664L81.5036 20.4493C80.6955 20.4379 79.933 20.4493 79.7964 20.4664C79.5062 20.5064 79.2046 20.7519 79.0395 21.0716C78.9314 21.2828 78.9314 21.494 78.9314 30.3599C78.9314 36.9936 78.9485 39.4826 78.994 39.6253C79.085 39.8879 79.2558 40.0706 79.5289 40.1962C79.7395 40.2933 79.9387 40.3047 81.9361 40.3047C83.9621 40.3047 84.1271 40.299 84.3263 40.1962C84.4401 40.1391 84.5824 40.0364 84.6393 39.9736C84.901 39.6824 84.901 39.7338 84.9067 34.0649C84.9067 28.0535 84.8954 28.2704 85.3222 27.4312C85.8742 26.358 86.927 25.69 88.0651 25.69C89.3626 25.69 90.3471 26.4836 90.7512 27.8423C90.8422 28.1448 90.8536 28.7214 90.8821 33.9679C90.9162 40.5045 90.8764 40.0364 91.3487 40.2133C91.565 40.299 91.878 40.3047 93.8811 40.2933C96.0835 40.2761 96.1745 40.2704 96.3225 40.1563C96.4078 40.0935 96.533 39.9393 96.5956 39.8137C96.7151 39.5968 96.7151 39.5169 96.7436 33.8537C96.7777 27.5854 96.755 27.9907 97.1306 27.26C97.6427 26.278 98.6045 25.69 99.7028 25.69C101.017 25.69 101.996 26.4322 102.44 27.7738L102.577 28.1734L102.605 33.9679C102.634 39.6025 102.639 39.7681 102.747 39.945C102.958 40.299 103.049 40.3104 105.604 40.2933C107.807 40.2761 107.898 40.2704 108.046 40.1563C108.131 40.0935 108.256 39.9393 108.319 39.8137C108.438 39.5968 108.438 39.5226 108.455 34.1962C108.472 28.4417 108.45 27.6368 108.216 26.5178C107.488 23.0754 105.297 20.769 102.241 20.2267C101.518 20.1011 100.158 20.1068 99.5605 20.2324C98.1435 20.5407 96.8859 21.2428 95.964 22.2305C95.7477 22.4588 95.4859 22.7842 95.3778 22.9441C95.2697 23.1039 95.1672 23.2352 95.1502 23.2352C95.1331 23.2352 95.0193 23.0868 94.8941 22.9155C94.5868 22.4817 93.7389 21.6767 93.1982 21.3056C92.2649 20.6605 91.2065 20.278 90.0057 20.1582C89.3285 20.0897 89.2147 20.0897 88.4919 20.1525Z" fill="black"/>
<path d="M120.554 20.158C118.209 20.3693 115.978 21.4083 114.328 23.0638C111.574 25.8326 110.618 29.9373 111.858 33.7108C112.979 37.1419 115.916 39.7622 119.421 40.4701C121.447 40.8754 122.677 40.7327 124.031 39.9164C124.56 39.6024 124.97 39.2655 125.681 38.5805C126.045 38.2322 126.347 37.9582 126.353 37.9696C126.364 37.9811 126.518 38.3921 126.7 38.8773C126.882 39.3626 127.098 39.8478 127.178 39.9563C127.428 40.2931 127.497 40.3046 129.608 40.3046C131.395 40.3046 131.531 40.2988 131.736 40.1904C132.044 40.0362 132.237 39.7851 132.305 39.4368C132.351 39.2256 132.368 36.4739 132.357 30.1428C132.339 21.8079 132.334 21.14 132.243 20.9744C132.118 20.746 131.782 20.4492 131.583 20.3978C131.497 20.3693 130.723 20.3521 129.864 20.3521C128.436 20.3521 128.282 20.3635 128.134 20.4549C127.918 20.5976 127.667 21.1571 127.275 22.3902C127.098 22.9497 126.945 23.4064 126.933 23.4064C126.928 23.4064 126.78 23.218 126.609 22.9896C125.391 21.374 123.946 20.4206 122.358 20.1809C121.766 20.0895 121.362 20.0838 120.554 20.158ZM122.796 25.57C123.712 25.8383 124.68 26.4777 125.232 27.1799C125.641 27.6994 125.801 27.9677 126.028 28.5272C126.609 29.983 126.484 31.6043 125.676 32.9972C125.38 33.5167 124.543 34.3331 123.985 34.6471C122.238 35.6347 120.15 35.5205 118.704 34.3674C118.181 33.9506 117.834 33.5053 117.515 32.8545C117.105 32.0153 116.98 31.4558 116.98 30.3997C116.98 29.6861 117.003 29.4577 117.111 29.0296C117.595 27.1285 118.938 25.7755 120.645 25.4558C121.106 25.3702 122.335 25.4387 122.796 25.57Z" fill="black"/>
<path d="M136.784 20.4949C136.574 20.5634 136.369 20.7518 136.221 21.0372L136.096 21.2656L136.078 30.1428C136.067 35.8345 136.084 39.1514 136.118 39.3912C136.181 39.7737 136.283 39.962 136.545 40.1561C136.693 40.2703 136.778 40.276 138.981 40.2932C141.206 40.3103 141.263 40.3046 141.507 40.1847C141.684 40.0991 141.803 39.9849 141.917 39.8022L142.071 39.5339L142.088 30.6281C142.099 24.3769 142.088 21.6366 142.042 21.4311C141.963 21.0658 141.729 20.7746 141.348 20.5862L141.052 20.4378L139.004 20.4435C137.871 20.4435 136.875 20.472 136.784 20.4949Z" fill="black"/>
<path d="M154.676 20.5635C154.511 20.6491 154.38 20.769 154.317 20.8946C154.078 21.3513 153.959 21.0202 158.028 31.0221L161.789 40.259L160.56 43.4674C159.883 45.2257 159.297 46.7614 159.257 46.8699C159.172 47.1039 159.229 47.6063 159.371 47.8175C159.416 47.8917 159.542 48.0002 159.644 48.0516C159.809 48.1429 160.048 48.1544 162.063 48.1715C164.242 48.1886 164.305 48.1829 164.51 48.0687C164.766 47.926 164.959 47.6577 165.09 47.2524C165.466 46.1448 169.899 34.927 173.655 25.6044C174.577 23.3094 175.299 21.4369 175.316 21.2885C175.362 20.9289 175.225 20.6891 174.907 20.5464C174.668 20.4379 174.525 20.4379 172.152 20.4493C169.728 20.4664 169.648 20.4721 169.495 20.5863C169.409 20.6491 169.29 20.769 169.227 20.8489C169.142 20.9631 165.875 30.3656 164.925 33.2371C164.823 33.5454 164.72 33.7966 164.703 33.7966C164.68 33.7966 163.719 31.0906 162.563 27.7852C159.946 20.3009 160.19 20.946 159.872 20.6663L159.61 20.4379H157.271C154.955 20.4379 154.926 20.4379 154.676 20.5635Z" fill="black"/>
</mask>
<g mask="url(#mask0_66_485)">
<rect x="-18" y="-10" width="197" height="65" fill="white"/>
</g>
</svg>
