<svg width="48" height="48" viewBox="0 0 48 48" fill="none" xmlns="http://www.w3.org/2000/svg">
<path d="M15.0001 11.2L10.0001 14L12.8001 9L10.0001 4L15.0001 6.8L20.0001 4L17.2001 9L20.0001 14L15.0001 11.2ZM39.0001 30.8L44.0001 28L41.2001 33L44.0001 38L39.0001 35.2L34.0001 38L36.8001 33L34.0001 28L39.0001 30.8ZM44.0001 4L41.2001 9L44.0001 14L39.0001 11.2L34.0001 14L36.8001 9L34.0001 4L39.0001 6.8L44.0001 4ZM26.6801 25.56L31.5601 20.68L27.3201 16.44L22.4401 21.32L26.6801 25.56ZM28.7401 14.58L33.4201 19.26C34.2001 20 34.2001 21.3 33.4201 22.08L10.0801 45.42C9.30012 46.2 8.00012 46.2 7.26012 45.42L2.58012 40.74C1.80012 40 1.80012 38.7 2.58012 37.92L25.9201 14.58C26.7001 13.8 28.0001 13.8 28.7401 14.58Z" fill="#2563EB"/>
</svg>
