<svg width="48" height="48" viewBox="0 0 48 48" fill="none" xmlns="http://www.w3.org/2000/svg">
<g clip-path="url(#clip0_66_419)">
<path d="M9 3V12H21V3C21 1.34062 19.6594 0 18 0H12C10.3406 0 9 1.34062 9 3ZM9 15C4.03125 15 0 19.0312 0 24V43.5C0 45.9844 2.01562 48 4.5 48H25.5C27.9844 48 30 45.9844 30 43.5V24C30 19.0312 25.9688 15 21 15H9ZM15 24C16.9891 24 18.8968 24.7902 20.3033 26.1967C21.7098 27.6032 22.5 29.5109 22.5 31.5C22.5 33.4891 21.7098 35.3968 20.3033 36.8033C18.8968 38.2098 16.9891 39 15 39C13.0109 39 11.1032 38.2098 9.6967 36.8033C8.29018 35.3968 7.5 33.4891 7.5 31.5C7.5 29.5109 8.29018 27.6032 9.6967 26.1967C11.1032 24.7902 13.0109 24 15 24ZM36 4.5C36 4.36875 35.9062 4.21875 35.7937 4.1625L33 3L31.8375 0.20625C31.7812 0.09375 31.6313 0 31.5 0C31.3687 0 31.2188 0.09375 31.1625 0.20625L30 3L27.2063 4.1625C27.0938 4.21875 27 4.36875 27 4.5C27 4.63125 27.0938 4.78125 27.2063 4.8375L30 6L31.1625 8.79375C31.2188 8.90625 31.3687 9 31.5 9C31.6313 9 31.7812 8.90625 31.8375 8.79375L33 6L35.7937 4.8375C35.9062 4.78125 36 4.63125 36 4.5ZM43.1625 8.79375C43.2188 8.90625 43.3688 9 43.5 9C43.6312 9 43.7812 8.90625 43.8375 8.79375L45 6L47.7937 4.8375C47.9062 4.78125 48 4.63125 48 4.5C48 4.36875 47.9062 4.21875 47.7937 4.1625L45 3L43.8375 0.20625C43.7812 0.09375 43.6312 0 43.5 0C43.3688 0 43.2188 0.09375 43.1625 0.20625L42 3L39.2063 4.1625C39.0938 4.21875 39 4.36875 39 4.5C39 4.63125 39.0938 4.78125 39.2063 4.8375L42 6L43.1625 8.79375ZM43.8375 18.2062C43.7812 18.0938 43.6312 18 43.5 18C43.3688 18 43.2188 18.0938 43.1625 18.2062L42 21L39.2063 22.1625C39.0938 22.2188 39 22.3687 39 22.5C39 22.6313 39.0938 22.7812 39.2063 22.8375L42 24L43.1625 26.7937C43.2188 26.9062 43.3688 27 43.5 27C43.6312 27 43.7812 26.9062 43.8375 26.7937L45 24L47.7937 22.8375C47.9062 22.7812 48 22.6313 48 22.5C48 22.3687 47.9062 22.2188 47.7937 22.1625L45 21L43.8375 18.2062ZM42 13.5C42 13.3687 41.9062 13.2187 41.7937 13.1625L39 12L37.8375 9.20625C37.7812 9.09375 37.6312 9 37.5 9C37.3688 9 37.2188 9.09375 37.1625 9.20625L36 12L33.2063 13.1625C33.0938 13.2187 33 13.3687 33 13.5C33 13.6313 33.0938 13.7813 33.2063 13.8375L36 15L37.1625 17.7938C37.2188 17.9062 37.3688 18 37.5 18C37.6312 18 37.7812 17.9062 37.8375 17.7938L39 15L41.7937 13.8375C41.9062 13.7813 42 13.6313 42 13.5Z" fill="#2563EB"/>
</g>
<defs>
<clipPath id="clip0_66_419">
<rect width="48" height="48" fill="white"/>
</clipPath>
</defs>
</svg>
