<svg width="54" height="48" viewBox="0 0 54 48" fill="none" xmlns="http://www.w3.org/2000/svg">
<path d="M0 12C0 7.03125 4.03125 3 9 3H45C49.9688 3 54 7.03125 54 12V36C54 40.9688 49.9688 45 45 45H9C4.03125 45 0 40.9688 0 36V12ZM16.5 16.5V21.75C16.5 22.9969 17.5031 24 18.75 24H23.25C24.4969 24 25.5 22.9969 25.5 21.75V16.5C25.5 14.0156 23.4844 12 21 12C18.5156 12 16.5 14.0156 16.5 16.5ZM33 12C30.5156 12 28.5 14.0156 28.5 16.5V21.75C28.5 22.9969 29.5031 24 30.75 24H35.25C36.4969 24 37.5 22.9969 37.5 21.75V16.5C37.5 14.0156 35.4844 12 33 12ZM4.5 19.5V21.75C4.5 22.9969 5.50313 24 6.75 24H11.25C12.4969 24 13.5 22.9969 13.5 21.75V19.5C13.5 17.0156 11.4844 15 9 15C6.51562 15 4.5 17.0156 4.5 19.5ZM9 36C11.4844 36 13.5 33.9844 13.5 31.5V29.25C13.5 28.0031 12.4969 27 11.25 27H6.75C5.50313 27 4.5 28.0031 4.5 29.25V31.5C4.5 33.9844 6.51562 36 9 36ZM16.5 31.5C16.5 33.9844 18.5156 36 21 36C23.4844 36 25.5 33.9844 25.5 31.5V29.25C25.5 28.0031 24.4969 27 23.25 27H18.75C17.5031 27 16.5 28.0031 16.5 29.25V31.5ZM33 36C35.4844 36 37.5 33.9844 37.5 31.5V29.25C37.5 28.0031 36.4969 27 35.25 27H30.75C29.5031 27 28.5 28.0031 28.5 29.25V31.5C28.5 33.9844 30.5156 36 33 36ZM40.5 19.5V21.75C40.5 22.9969 41.5031 24 42.75 24H47.25C48.4969 24 49.5 22.9969 49.5 21.75V19.5C49.5 17.0156 47.4844 15 45 15C42.5156 15 40.5 17.0156 40.5 19.5ZM45 36C47.4844 36 49.5 33.9844 49.5 31.5V29.25C49.5 28.0031 48.4969 27 47.25 27H42.75C41.5031 27 40.5 28.0031 40.5 29.25V31.5C40.5 33.9844 42.5156 36 45 36Z" fill="#2563EB"/>
</svg>
