<svg width="48" height="48" viewBox="0 0 48 48" fill="none" xmlns="http://www.w3.org/2000/svg">
<path d="M14 4C8 4 4 10 4 16C4 20.22 6 26 8 28C10 30 12 44 16 44C25.08 44 20 30 24 30C28 30 22.92 44 32 44C36 44 38 30 40 28C42 26 44 20.22 44 16C44 10 40 4 34 4C28 4 28 6 24 6C20 6 20 4 14 4Z" fill="#2563EB"/>
<path d="M14 4C8 4 4 10 4 16C4 20.22 6 26 8 28C10 30 12 44 16 44C25.08 44 20 30 24 30C28 30 22.92 44 32 44C36 44 38 30 40 28C42 26 44 20.22 44 16C44 10 40 4 34 4C28 4 28 6 24 6C20 6 20 4 14 4Z" fill="#2563EB"/>
</svg>
